<svg width="120" height="120" viewBox="0 0 120 120" fill="none" xmlns="http://www.w3.org/2000/svg">
<g clip-path="url(#clip0_16_856)">
<path d="M60 120C93.1371 120 120 93.1371 120 60C120 26.8629 93.1371 0 60 0C26.8629 0 0 26.8629 0 60C0 93.1371 26.8629 120 60 120Z" fill="#EFF3F8"/>
<path d="M120 59.9985C120 34.2006 103.717 12.208 80.8691 3.73047V116.267C103.717 107.789 120 85.7964 120 59.9985Z" fill="#D80027"/>
<path d="M0 59.9985C0 85.7964 16.2827 107.789 39.1305 116.267V3.73047C16.2827 12.208 0 34.2006 0 59.9985Z" fill="#0052B4"/>
</g>
<defs>
<clipPath id="clip0_16_856">
<rect width="120" height="120" fill="white"/>
</clipPath>
</defs>
</svg>
