<svg width="120" height="120" viewBox="0 0 120 120" fill="none" xmlns="http://www.w3.org/2000/svg">
<g clip-path="url(#clip0_16_863)">
<path d="M3.73242 80.8695C12.21 103.717 34.2026 120 60.0005 120C85.7984 120 107.791 103.717 116.269 80.8695L60.0005 75.6523L3.73242 80.8695Z" fill="#FFDA44"/>
<path d="M60.0005 0C34.2026 0 12.21 16.2825 3.73242 39.1305L60.0005 44.3477L116.269 39.1303C107.791 16.2825 85.7984 0 60.0005 0Z" fill="black"/>
<path d="M3.73195 39.1289C1.32023 45.6288 0 52.6591 0 59.9984C0 67.3376 1.32023 74.3679 3.73195 80.8678H116.268C118.68 74.3679 120 67.3376 120 59.9984C120 52.6591 118.68 45.6288 116.268 39.1289H3.73195Z" fill="#D80027"/>
</g>
<defs>
<clipPath id="clip0_16_863">
<rect width="120" height="120" fill="white"/>
</clipPath>
</defs>
</svg>
