<svg width="120" height="120" viewBox="0 0 120 120" fill="none" xmlns="http://www.w3.org/2000/svg">
<g clip-path="url(#clip0_16_852)">
<path d="M60 120C93.1371 120 120 93.1371 120 60C120 26.8629 93.1371 0 60 0C26.8629 0 0 26.8629 0 60C0 93.1371 26.8629 120 60 120Z" fill="#EFF3F8"/>
<path d="M60.0005 0C34.2026 0 12.21 16.2825 3.73242 39.1305H116.269C107.791 16.2825 85.7984 0 60.0005 0Z" fill="#A2001D"/>
<path d="M60.0005 120.002C85.7984 120.002 107.791 103.719 116.269 80.8711H3.73242C12.21 103.719 34.2026 120.002 60.0005 120.002Z" fill="#0052B4"/>
</g>
<defs>
<clipPath id="clip0_16_852">
<rect width="120" height="120" fill="white"/>
</clipPath>
</defs>
</svg>
