<svg width="48" height="48" viewBox="0 0 48 48" fill="none" xmlns="http://www.w3.org/2000/svg">
<g clip-path="url(#clip0_16_702)">
<path d="M24 3.89844C12.96 3.89844 4 12.8584 4 23.8984C4 34.9384 12.96 43.8984 24 43.8984H34V39.8984H24C15.32 39.8984 8 32.5784 8 23.8984C8 15.2184 15.32 7.89844 24 7.89844C32.68 7.89844 40 15.2184 40 23.8984V26.7584C40 28.3384 38.58 29.8984 37 29.8984C35.42 29.8984 34 28.3384 34 26.7584V23.8984C34 18.3784 29.52 13.8984 24 13.8984C18.48 13.8984 14 18.3784 14 23.8984C14 29.4184 18.48 33.8984 24 33.8984C26.76 33.8984 29.28 32.7784 31.08 30.9584C32.38 32.7384 34.62 33.8984 37 33.8984C40.94 33.8984 44 30.6984 44 26.7584V23.8984C44 12.8584 35.04 3.89844 24 3.89844ZM24 29.8984C20.68 29.8984 18 27.2184 18 23.8984C18 20.5784 20.68 17.8984 24 17.8984C27.32 17.8984 30 20.5784 30 23.8984C30 27.2184 27.32 29.8984 24 29.8984Z" fill="#2165B7"/>
</g>
<defs>
<clipPath id="clip0_16_702">
<rect width="48" height="48" fill="white"/>
</clipPath>
</defs>
</svg>
